<svg height="512" viewBox="0 0 256 256" width="512" xmlns="http://www.w3.org/2000/svg"><rect fill="#cecece" height="151.106" rx="13.665" width="219.26" x="18.37" y="49.464"/><path d="m28.37 186.9v-123.772a13.681 13.681 0 0 1 13.665-13.664h-10a13.681 13.681 0 0 0 -13.665 13.664v123.772a13.681 13.681 0 0 0 13.665 13.665h10a13.681 13.681 0 0 1 -13.665-13.665z" fill="#afafaf"/><path d="m227.63 186.9v-123.772a13.681 13.681 0 0 0 -13.665-13.665h10a13.681 13.681 0 0 1 13.665 13.665v123.772a13.681 13.681 0 0 1 -13.665 13.665h-10a13.681 13.681 0 0 0 13.665-13.665z" fill="#e2e2e2"/><rect fill="#63bce7" height="122.288" rx="5.256" width="202.442" x="26.779" y="57.872"/><path d="m36.779 174.9v-111.772a5.271 5.271 0 0 1 5.256-5.256h-10a5.271 5.271 0 0 0 -5.256 5.256v111.772a5.271 5.271 0 0 0 5.256 5.256h10a5.271 5.271 0 0 1 -5.256-5.256z" fill="#6377e7"/><path d="m219.221 174.9v-111.772a5.271 5.271 0 0 0 -5.256-5.256h10a5.271 5.271 0 0 1 5.256 5.256v111.772a5.271 5.271 0 0 1 -5.256 5.256h-10a5.271 5.271 0 0 0 5.256-5.256z" fill="#63e2e7"/><path d="m89.809 222.728h76.383v9.197h-76.383z" fill="#9e9e9e"/><path d="m89.809 222.728h10v9.197h-10z" fill="#707070"/><path d="m100.67 200.569h54.659v22.158h-54.659z" fill="#cecece"/><path d="m100.67 200.569h10v22.158h-10z" fill="#afafaf"/><circle cx="128" cy="190.365" fill="#9e9e9e" r="4.5"/><path d="m188.979 40.496-27.393-27.394h-94.565v167.058h121.958z" fill="#f8af23"/><path d="m161.586 13.102h-10l27.393 27.394v139.664h10v-139.664z" fill="#f8d323"/><path d="m67.021 13.102h10v167.058h-10z" fill="#f87023"/><path d="m67.021 134.25h121.959v45.91h-121.959z" fill="#9e9e9e"/><path d="m67.021 134.25h10v45.91h-10z" fill="#707070"/><path d="m178.979 134.25h10v45.91h-10z" fill="#cecece"/><g fill="#3f3679"><path d="m112.757 145.581a12.513 12.513 0 0 1 3.121 3.678 2.717 2.717 0 0 1 -2.325 4.085h-1.873a2.756 2.756 0 0 1 -2.286-1.283 6.537 6.537 0 0 0 -1.814-1.83 6.949 6.949 0 0 0 -3.98-1.131 6.07 6.07 0 0 0 -4.892 2.223 8.969 8.969 0 0 0 -1.861 5.945 8.876 8.876 0 0 0 1.861 5.923 6.084 6.084 0 0 0 4.892 2.2 6.949 6.949 0 0 0 3.983-1.132 6.627 6.627 0 0 0 1.81-1.808 2.759 2.759 0 0 1 2.276-1.266h1.872a2.716 2.716 0 0 1 2.324 4.088 12.676 12.676 0 0 1 -3.106 3.655 13.915 13.915 0 0 1 -9.038 2.891 14.247 14.247 0 0 1 -7.319-1.84 12.5 12.5 0 0 1 -4.874-5.155 17.5 17.5 0 0 1 0-15.124 12.505 12.505 0 0 1 4.874-5.155 14.264 14.264 0 0 1 7.319-1.84 13.978 13.978 0 0 1 9.036 2.876z"/><path d="m140.655 167.7a8.112 8.112 0 0 1 -3.4 3.032 11.956 11.956 0 0 1 -5.436 1.132 12.814 12.814 0 0 1 -7.927-2.345 8.286 8.286 0 0 1 -2.3-2.606 2.7 2.7 0 0 1 2.408-3.946h1.729a2.691 2.691 0 0 1 2.494 1.446 3.444 3.444 0 0 0 .783 1.1 3.545 3.545 0 0 0 2.529.93 2.923 2.923 0 0 0 2.1-.729 2.542 2.542 0 0 0 .77-1.94 2.51 2.51 0 0 0 -.708-1.82 5.492 5.492 0 0 0 -1.761-1.193c-.7-.309-1.67-.681-2.909-1.112a35.524 35.524 0 0 1 -4.428-1.8 8.151 8.151 0 0 1 -2.953-2.587 8.43 8.43 0 0 1 .061-8.877 8.221 8.221 0 0 1 3.579-2.85 13.041 13.041 0 0 1 5.237-.992 11.729 11.729 0 0 1 7.58 2.266 8.252 8.252 0 0 1 1.991 2.3 2.677 2.677 0 0 1 -2.4 3.924h-1.961a2.593 2.593 0 0 1 -2.341-1.374 3.3 3.3 0 0 0 -.622-.87 3.035 3.035 0 0 0 -2.243-.828 2.891 2.891 0 0 0 -1.961.647 2.376 2.376 0 0 0 -.749 1.9 2.4 2.4 0 0 0 .668 1.718 5.063 5.063 0 0 0 1.678 1.153c.673.3 1.645.675 2.909 1.132a31.771 31.771 0 0 1 4.489 1.84 8.618 8.618 0 0 1 2.995 2.649 7.566 7.566 0 0 1 1.254 4.528 7.87 7.87 0 0 1 -1.155 4.172z"/><path d="m165.04 167.7a8.152 8.152 0 0 1 -3.4 3.032 11.971 11.971 0 0 1 -5.44 1.132 12.824 12.824 0 0 1 -7.927-2.345 8.286 8.286 0 0 1 -2.295-2.607 2.7 2.7 0 0 1 2.406-3.945h1.73a2.688 2.688 0 0 1 2.493 1.446 3.425 3.425 0 0 0 .783 1.1 3.547 3.547 0 0 0 2.527.93 2.932 2.932 0 0 0 2.1-.729 2.542 2.542 0 0 0 .77-1.94 2.5 2.5 0 0 0 -.711-1.82 5.513 5.513 0 0 0 -1.757-1.193q-1.051-.464-2.909-1.112a35.351 35.351 0 0 1 -4.429-1.8 8.169 8.169 0 0 1 -2.955-2.587 8.435 8.435 0 0 1 .063-8.877 8.235 8.235 0 0 1 3.577-2.85 13.06 13.06 0 0 1 5.239-.992 11.743 11.743 0 0 1 7.582 2.266 8.258 8.258 0 0 1 1.989 2.3 2.677 2.677 0 0 1 -2.405 3.923h-1.958a2.593 2.593 0 0 1 -2.341-1.374 3.3 3.3 0 0 0 -.622-.87 3.042 3.042 0 0 0 -2.244-.828 2.894 2.894 0 0 0 -1.961.647 2.372 2.372 0 0 0 -.75 1.9 2.4 2.4 0 0 0 .671 1.718 5 5 0 0 0 1.678 1.153q1.007.444 2.909 1.132a31.936 31.936 0 0 1 4.489 1.84 8.618 8.618 0 0 1 2.995 2.649 7.588 7.588 0 0 1 1.25 4.528 7.867 7.867 0 0 1 -1.147 4.173z"/><path d="m128 196.365a6 6 0 1 0 -6-6 6.007 6.007 0 0 0 6 6zm0-9a3 3 0 1 1 -3 3 3 3 0 0 1 3-3z"/><path d="m27.323 241.4h-18a1.5 1.5 0 0 0 0 3h18a1.5 1.5 0 1 0 0-3z"/><path d="m246.68 241.4h-18a1.5 1.5 0 0 0 0 3h18a1.5 1.5 0 0 0 0-3z"/><path d="m218.479 241.4h-180.958a1.5 1.5 0 0 0 0 3h180.958a1.5 1.5 0 0 0 0-3z"/><path d="m9.32 233.425h237.36a1.5 1.5 0 0 0 0-3h-78.989v-7.7a1.5 1.5 0 0 0 -1.5-1.5h-9.362v-19.156h67.137a15.182 15.182 0 0 0 15.164-15.169v-123.772a15.182 15.182 0 0 0 -15.164-15.165h-33.487v-7.463a1.5 1.5 0 0 0 -.439-1.061l-27.394-27.397a1.5 1.5 0 0 0 -1.061-.439h-94.564a1.5 1.5 0 0 0 -1.5 1.5v34.86h-33.487a15.182 15.182 0 0 0 -15.164 15.165v123.772a15.182 15.182 0 0 0 15.164 15.165h67.137v19.158h-9.362a1.5 1.5 0 0 0 -1.5 1.5v7.7h-78.989a1.5 1.5 0 0 0 0 3zm153.766-216.7 22.272 22.275h-22.272zm24.393 161.935h-118.958v-42.91h118.958zm-121.958-44.41v44.411h-33.487a3.76 3.76 0 0 1 -3.755-3.756v-111.777a3.759 3.759 0 0 1 3.755-3.755h33.487zm124.959 0v-74.877h33.486a3.759 3.759 0 0 1 3.755 3.755v111.772a3.76 3.76 0 0 1 -3.755 3.756h-33.487zm-30.394-119.65v25.9a1.5 1.5 0 0 0 1.5 1.5h25.894v90.75h-118.959v-118.15zm-140.216 172.3v-123.772a12.178 12.178 0 0 1 12.164-12.165h33.487v5.409h-33.487a6.763 6.763 0 0 0 -6.755 6.755v111.773a6.763 6.763 0 0 0 6.755 6.756h191.932a6.763 6.763 0 0 0 6.755-6.756v-111.772a6.763 6.763 0 0 0 -6.755-6.755h-33.487v-5.41h33.486a12.178 12.178 0 0 1 12.165 12.165v123.772a12.178 12.178 0 0 1 -12.164 12.165h-191.932a12.178 12.178 0 0 1 -12.164-12.165zm82.3 15.165h51.658v19.158h-51.657zm-10.861 22.163h73.383v6.2h-73.383z"/><path d="m82.719 50.963h3.7c1.173 0 2.2 1.531 2.2 3.276v10.587c0 3.46 2.28 6.276 5.082 6.276h3.582a1.5 1.5 0 0 0 0-3h-3.583c-.984 0-2.082-1.345-2.082-3.276v-10.587a6.85 6.85 0 0 0 -1.835-4.776 6.85 6.85 0 0 0 1.835-4.776v-10.587c0-1.931 1.1-3.276 2.082-3.276h3.582a1.5 1.5 0 0 0 0-3h-3.582c-2.8 0-5.082 2.815-5.082 6.276v10.588c0 1.745-1.028 3.276-2.2 3.276h-3.7a1.5 1.5 0 0 0 0 3z"/><path d="m167.379 86.6c0-3.46-2.28-6.276-5.082-6.276h-3.582a1.5 1.5 0 0 0 0 3h3.585c.984 0 2.082 1.345 2.082 3.276v10.584a6.85 6.85 0 0 0 1.835 4.776 6.85 6.85 0 0 0 -1.835 4.776v10.586c0 1.931-1.1 3.276-2.082 3.276h-3.582a1.5 1.5 0 0 0 0 3h3.582c2.8 0 5.082-2.815 5.082-6.276v-10.586c0-1.745 1.028-3.276 2.2-3.276h3.7a1.5 1.5 0 0 0 0-3h-3.7c-1.173 0-2.2-1.531-2.2-3.276z"/><path d="m103.024 50.963h62.976a1.5 1.5 0 0 0 0-3h-62.976a1.5 1.5 0 0 0 0 3z"/><path d="m103.024 62.659h62.976a1.5 1.5 0 0 0 0-3h-62.976a1.5 1.5 0 0 0 0 3z"/><path d="m103.024 74.354h62.976a1.5 1.5 0 0 0 0-3h-62.976a1.5 1.5 0 0 0 0 3z"/><path d="m143.25 89h-53.25a1.5 1.5 0 0 0 0 3h53.25a1.5 1.5 0 0 0 0-3z"/><path d="m143.25 100.46h-53.25a1.5 1.5 0 0 0 0 3h53.25a1.5 1.5 0 0 0 0-3z"/><path d="m143.25 111.916h-53.25a1.5 1.5 0 0 0 0 3h53.25a1.5 1.5 0 0 0 0-3z"/></g></svg>